# xmcd CD database file
#
# Track frame offsets:
#	151
#	24892
#	42860
#	58311
#	77736
#	91267
#	109424
#	126690
#	142677
#	160014
#	173621
#	190574
#	207523
#	231196
#
# Disc length: 3332 seconds
#
# Revision: 1
# Processed by: cddbd v1.5.1PL2 Copyright (c) Steve Scherf et al.
# Submitted via: CDex 1.51
#
DISCID=b50d020e
DTITLE=Chairman's Blues Band - Meeting Adjourned - Four to the Bar
DYEAR=2004
DGENRE=Blues
TTITLE0=Stormy Monday
TTITLE1=St. Louis Blues
TTITLE2=Black Magic Woman
TTITLE3=Queen Bee
TTITLE4=I'm Tore Down
TTITLE5=I'd Rather Go Blind
TTITLE6=Hoochie Coochie Man
TTITLE7=Walkin' The Dog
TTITLE8=Hey Joe
TTITLE9=Nobody Knows You When You're Down and Out
TTITLE10=Still Got The Blues For You
TTITLE11=Lover Man
TTITLE12=Little Red Rooster
TTITLE13=Enough of the Blues
EXTD=YEAR: 2004
EXTT0=
EXTT1=
EXTT2=
EXTT3=
EXTT4=
EXTT5=
EXTT6=
EXTT7=
EXTT8=
EXTT9=
EXTT10=
EXTT11=
EXTT12=
EXTT13=
PLAYORDER=
